<?xml version="1.0" encoding="UTF-8" standalone="no" ?>
<!DOCTYPE svg PUBLIC "-//W3C//DTD SVG 1.1//EN" "http://www.w3.org/Graphics/SVG/1.1/DTD/svg11.dtd">
<svg xmlns="http://www.w3.org/2000/svg" xmlns:xlink="http://www.w3.org/1999/xlink" version="1.1" width="1280" height="1024" viewBox="0 0 1280 1024" xml:space="preserve">
<desc>Created with Fabric.js 4.4.0</desc>
<defs>
</defs>
<g transform="matrix(1 0 0 1 640 512)" id="background-logo"  >
<rect style="stroke: none; stroke-width: 0; stroke-dasharray: none; stroke-linecap: butt; stroke-dashoffset: 0; stroke-linejoin: miter; stroke-miterlimit: 4; fill: rgb(255,255,255); fill-opacity: 0; fill-rule: nonzero; opacity: 1;"  paint-order="stroke"  x="-640" y="-512" rx="0" ry="0" width="1280" height="1024" />
</g>
<g transform="matrix(1.9211538461538462 0 0 1.9211538461538462 643.34870597166 640.5840248368509)" id="text-logo-path-group"  >
<g style=""  paint-order="stroke"   >
		<g transform="matrix(1 0 0 1 0 0)" id="text-logo-path-0"  >
<path style="stroke: none; stroke-width: 1; stroke-dasharray: none; stroke-linecap: butt; stroke-dashoffset: 0; stroke-linejoin: miter; stroke-miterlimit: 4; fill: rgb(252,94,38); fill-rule: nonzero; opacity: 1;"  paint-order="stroke"  transform=" translate(-207.99, 20.49)" d="M 19.44 -41.04 L 3.78 -41.04 L 3.78 0 L 13.74 0 L 13.74 -13.2 L 19.44 -13.2 C 27.18 -13.2 33.42 -19.44 33.42 -27.12 C 33.42 -34.8 27.18 -41.04 19.44 -41.04 Z M 13.74 -22.68 L 13.74 -31.56 L 19.44 -31.56 C 22.02 -31.56 23.88 -29.7 23.88 -27.12 C 23.88 -24.6 21.96 -22.68 19.44 -22.68 Z M 59.28 -13.2 L 66.66 0 L 78.06 0 L 69.48 -15.48 C 73.44 -18.06 75.72 -22.44 75.72 -27.12 C 75.72 -34.86 69.54 -41.04 61.86 -41.04 L 44.46 -41.04 L 44.46 0 L 54.48 0 L 54.48 -13.2 Z M 54.48 -22.68 L 54.48 -31.56 L 61.86 -31.56 C 64.38 -31.56 66.3 -29.64 66.3 -27.12 C 66.3 -24.72 64.26 -22.68 61.86 -22.68 Z M 104.64 0.84 C 112.26 0.84 119.64 -3.42 119.64 -11.64 C 119.64 -19.74 113.28 -23.1 106.38 -25.2 C 104.52 -25.8 103.14 -26.34 102.24 -26.76 C 100.98 -27.36 100.08 -28.02 100.08 -29.52 C 100.08 -31.26 102.3 -31.92 103.68 -31.92 C 106.92 -31.92 108.54 -30.48 109.92 -27.66 L 118.44 -32.64 C 115.5 -38.7 110.4 -41.82 103.68 -41.82 C 96.36 -41.82 90.12 -37.08 90.12 -29.52 C 90.12 -21.78 95.64 -18.72 102.3 -16.74 C 104.4 -16.14 105.9 -15.6 106.92 -15.18 C 108.3 -14.64 109.68 -13.92 109.68 -12.24 C 109.68 -10.02 106.68 -8.94 104.88 -8.94 C 100.98 -8.94 98.28 -10.44 96.78 -14.16 L 88.38 -9.24 C 91.08 -2.34 97.44 0.84 104.64 0.84 Z M 158.76 -31.56 L 158.76 -41.04 L 128.1 -41.04 L 128.1 -31.56 L 138.48 -31.56 L 138.48 0 L 148.44 0 L 148.44 -31.56 Z M 187.8 0.84 C 199.56 0.84 208.92 -8.7 208.92 -20.34 C 208.92 -32.16 199.5 -41.46 187.8 -41.46 C 176.04 -41.46 166.62 -31.98 166.62 -20.34 C 166.62 -8.76 176.1 0.84 187.8 0.84 Z M 176.58 -20.34 C 176.58 -26.46 181.74 -31.5 187.8 -31.5 C 193.98 -31.5 198.9 -26.46 198.9 -20.34 C 198.9 -14.22 193.98 -9.18 187.8 -9.18 C 181.68 -9.18 176.58 -14.28 176.58 -20.34 Z M 240.48 0.84 C 252.24 0.84 261.6 -8.7 261.6 -20.34 C 261.6 -32.16 252.18 -41.46 240.48 -41.46 C 228.72 -41.46 219.3 -31.98 219.3 -20.34 C 219.3 -8.76 228.78 0.84 240.48 0.84 Z M 229.26 -20.34 C 229.26 -26.46 234.42 -31.5 240.48 -31.5 C 246.66 -31.5 251.58 -26.46 251.58 -20.34 C 251.58 -14.22 246.66 -9.18 240.48 -9.18 C 234.36 -9.18 229.26 -14.28 229.26 -20.34 Z M 283.8 -9.42 L 283.8 -41.04 L 273.78 -41.04 L 273.78 0 L 299.7 0 L 299.7 -9.42 Z M 336.6 0 L 349.02 0 L 332.04 -22.38 L 347.04 -41.04 L 334.44 -41.04 L 321.9 -25.62 L 321.9 -41.04 L 311.88 -41.04 L 311.88 0 L 321.9 0 L 321.9 -9.66 L 325.62 -14.34 Z M 359.46 -41.04 L 359.46 0 L 369.48 0 L 369.48 -41.04 Z M 412.2 -31.56 L 412.2 -41.04 L 381.54 -41.04 L 381.54 -31.56 L 391.92 -31.56 L 391.92 0 L 401.88 0 L 401.88 -31.56 Z" stroke-linecap="round" />
</g>
</g>
</g>
<g transform="matrix(1.9211538461538462 0 0 1.9211538461538462 640.8819444331981 730.9383960903881)" id="tagline-5c937388-50e4-4340-8c6a-2fae25e6c0fd-logo-path-group"  >
<g style=""  paint-order="stroke"   >
		<g transform="matrix(1 0 0 1 0 0)" id="tagline-5c937388-50e4-4340-8c6a-2fae25e6c0fd-logo-path-0"  >
<path style="stroke: none; stroke-width: 1; stroke-dasharray: none; stroke-linecap: butt; stroke-dashoffset: 0; stroke-linejoin: miter; stroke-miterlimit: 4; fill: rgb(163,46,0); fill-rule: nonzero; opacity: 1;"  paint-order="stroke"  transform=" translate(-200.82999999999998, 4.78)" d="M 0.45 -4.75 C 0.45 -2.02 2.69 0.2 5.39 0.2 C 7.2 0.2 8.9 -0.84 9.74 -2.44 L 7.69 -3.56 C 7.27 -2.7 6.34 -2.14 5.39 -2.14 C 3.96 -2.14 2.77 -3.33 2.77 -4.75 C 2.77 -6.17 3.98 -7.35 5.39 -7.35 C 6.34 -7.35 7.21 -6.85 7.67 -6.01 L 9.72 -7.1 C 8.86 -8.69 7.2 -9.67 5.39 -9.67 C 2.67 -9.67 0.45 -7.49 0.45 -4.75 Z M 19.87 0 L 22.36 0 L 18.84 -9.58 L 16.35 -9.58 L 12.85 0 L 15.34 0 L 15.96 -1.67 L 19.25 -1.67 Z M 16.76 -3.88 L 17.61 -6.19 L 18.44 -3.88 Z M 28.57 -2.2 L 28.57 -9.58 L 26.24 -9.58 L 26.24 0 L 32.28 0 L 32.28 -2.2 Z M 35.8 -4.75 C 35.8 -2.02 38.04 0.2 40.74 0.2 C 42.55 0.2 44.25 -0.84 45.09 -2.44 L 43.04 -3.56 C 42.62 -2.7 41.69 -2.14 40.74 -2.14 C 39.31 -2.14 38.12 -3.33 38.12 -4.75 C 38.12 -6.17 39.33 -7.35 40.74 -7.35 C 41.69 -7.35 42.56 -6.85 43.02 -6.01 L 45.07 -7.1 C 44.21 -8.69 42.55 -9.67 40.74 -9.67 C 38.02 -9.67 35.8 -7.49 35.8 -4.75 Z M 57.09 -3.22 L 57.09 -9.58 L 54.77 -9.58 L 54.77 -3.22 C 54.77 -2.41 53.98 -2.13 53.28 -2.13 C 52.64 -2.13 51.81 -2.46 51.81 -3.22 L 51.81 -9.58 L 49.49 -9.58 L 49.49 -3.22 C 49.49 -1.09 51.3 0.2 53.28 0.2 C 55.29 0.2 57.09 -1.13 57.09 -3.22 Z M 64.33 -2.2 L 64.33 -9.58 L 61.99 -9.58 L 61.99 0 L 68.04 0 L 68.04 -2.2 Z M 78.92 0 L 81.41 0 L 77.9 -9.58 L 75.4 -9.58 L 71.9 0 L 74.4 0 L 75.01 -1.67 L 78.3 -1.67 Z M 75.81 -3.88 L 76.66 -6.19 L 77.49 -3.88 Z M 90.41 -7.36 L 90.41 -9.58 L 83.26 -9.58 L 83.26 -7.36 L 85.68 -7.36 L 85.68 0 L 88 0 L 88 -7.36 Z M 96.61 -2.2 L 96.61 -3.79 L 99.95 -3.79 L 99.95 -5.99 L 96.61 -5.99 L 96.61 -7.36 L 100.28 -7.36 L 100.28 -9.58 L 94.28 -9.58 L 94.28 0 L 100.35 0 L 100.35 -2.2 Z M 115.32 -9.58 L 111.66 -9.58 L 111.66 0 L 113.99 0 L 113.99 -3.08 L 115.32 -3.08 C 117.12 -3.08 118.58 -4.54 118.58 -6.33 C 118.58 -8.12 117.12 -9.58 115.32 -9.58 Z M 113.99 -5.29 L 113.99 -7.36 L 115.32 -7.36 C 115.92 -7.36 116.35 -6.93 116.35 -6.33 C 116.35 -5.74 115.91 -5.29 115.32 -5.29 Z M 127.11 0.2 C 129.85 0.2 132.03 -2.03 132.03 -4.75 C 132.03 -7.5 129.84 -9.67 127.11 -9.67 C 124.36 -9.67 122.16 -7.46 122.16 -4.75 C 122.16 -2.04 124.38 0.2 127.11 0.2 Z M 124.49 -4.75 C 124.49 -6.17 125.69 -7.35 127.11 -7.35 C 128.55 -7.35 129.7 -6.17 129.7 -4.75 C 129.7 -3.32 128.55 -2.14 127.11 -2.14 C 125.68 -2.14 124.49 -3.33 124.49 -4.75 Z M 138.64 -2.2 L 138.64 -9.58 L 136.3 -9.58 L 136.3 0 L 142.35 0 L 142.35 -2.2 Z M 150.5 -9.58 L 148.55 -5.98 L 146.59 -9.58 L 143.96 -9.58 L 147.38 -3.25 L 147.38 0 L 149.72 0 L 149.72 -3.22 L 153.13 -9.58 Z M 166.64 -4.4 L 166.64 -5.35 L 161.35 -5.35 L 161.35 -3.14 L 163.81 -3.14 C 163.32 -2.51 162.58 -2.14 161.78 -2.14 C 160.36 -2.14 159.17 -3.33 159.17 -4.75 C 159.17 -6.17 160.37 -7.35 161.78 -7.35 C 162.65 -7.35 163.34 -6.97 163.87 -6.29 L 165.69 -7.73 C 164.74 -8.96 163.35 -9.67 161.78 -9.67 C 159.04 -9.67 156.84 -7.46 156.84 -4.75 C 156.84 -2.02 159.08 0.2 161.78 0.2 C 164.33 0.2 166.64 -1.79 166.64 -4.4 Z M 173.25 -2.2 L 173.25 -3.79 L 176.58 -3.79 L 176.58 -5.99 L 173.25 -5.99 L 173.25 -7.36 L 176.92 -7.36 L 176.92 -9.58 L 170.91 -9.58 L 170.91 0 L 176.99 0 L 176.99 -2.2 Z M 186.98 -9.58 L 186.98 -4.7 L 183.88 -9.58 L 181.54 -9.58 L 181.54 0 L 183.88 0 L 183.88 -5.47 L 187.38 0 L 189.32 0 L 189.32 -9.58 Z M 194.29 -9.58 L 194.29 0 L 196.63 0 L 196.63 -9.58 Z M 200.91 -4.75 C 200.91 -2.02 203.15 0.2 205.86 0.2 C 207.66 0.2 209.37 -0.84 210.21 -2.44 L 208.15 -3.56 C 207.73 -2.7 206.81 -2.14 205.86 -2.14 C 204.43 -2.14 203.24 -3.33 203.24 -4.75 C 203.24 -6.17 204.44 -7.35 205.86 -7.35 C 206.81 -7.35 207.68 -6.85 208.14 -6.01 L 210.18 -7.1 C 209.33 -8.69 207.66 -9.67 205.86 -9.67 C 203.14 -9.67 200.91 -7.49 200.91 -4.75 Z M 224.74 0.2 C 226.52 0.2 228.24 -0.8 228.24 -2.72 C 228.24 -4.61 226.76 -5.39 225.15 -5.88 C 224.71 -6.02 224.39 -6.15 224.18 -6.24 C 223.89 -6.38 223.68 -6.54 223.68 -6.89 C 223.68 -7.29 224.2 -7.45 224.52 -7.45 C 225.27 -7.45 225.65 -7.11 225.97 -6.45 L 227.96 -7.62 C 227.28 -9.03 226.09 -9.76 224.52 -9.76 C 222.81 -9.76 221.35 -8.65 221.35 -6.89 C 221.35 -5.08 222.64 -4.37 224.2 -3.91 C 224.69 -3.77 225.04 -3.64 225.27 -3.54 C 225.6 -3.42 225.92 -3.25 225.92 -2.86 C 225.92 -2.34 225.22 -2.09 224.8 -2.09 C 223.89 -2.09 223.26 -2.44 222.91 -3.3 L 220.95 -2.16 C 221.58 -0.55 223.06 0.2 224.74 0.2 Z M 231.97 -4.75 C 231.97 -2.02 234.21 0.2 236.91 0.2 C 238.71 0.2 240.42 -0.84 241.26 -2.44 L 239.2 -3.56 C 238.78 -2.7 237.86 -2.14 236.91 -2.14 C 235.48 -2.14 234.29 -3.33 234.29 -4.75 C 234.29 -6.17 235.49 -7.35 236.91 -7.35 C 237.86 -7.35 238.73 -6.85 239.19 -6.01 L 241.23 -7.1 C 240.38 -8.69 238.71 -9.67 236.91 -9.67 C 234.19 -9.67 231.97 -7.49 231.97 -4.75 Z M 249.86 0.2 C 252.6 0.2 254.79 -2.03 254.79 -4.75 C 254.79 -7.5 252.59 -9.67 249.86 -9.67 C 247.11 -9.67 244.92 -7.46 244.92 -4.75 C 244.92 -2.04 247.13 0.2 249.86 0.2 Z M 247.24 -4.75 C 247.24 -6.17 248.44 -7.35 249.86 -7.35 C 251.3 -7.35 252.45 -6.17 252.45 -4.75 C 252.45 -3.32 251.3 -2.14 249.86 -2.14 C 248.43 -2.14 247.24 -3.33 247.24 -4.75 Z M 262.51 -3.08 L 264.24 0 L 266.9 0 L 264.89 -3.61 C 265.82 -4.21 266.35 -5.24 266.35 -6.33 C 266.35 -8.13 264.91 -9.58 263.12 -9.58 L 259.06 -9.58 L 259.06 0 L 261.39 0 L 261.39 -3.08 Z M 261.39 -5.29 L 261.39 -7.36 L 263.12 -7.36 C 263.7 -7.36 264.15 -6.92 264.15 -6.33 C 264.15 -5.77 263.68 -5.29 263.12 -5.29 Z M 273.15 -2.2 L 273.15 -3.79 L 276.49 -3.79 L 276.49 -5.99 L 273.15 -5.99 L 273.15 -7.36 L 276.82 -7.36 L 276.82 -9.58 L 270.82 -9.58 L 270.82 0 L 276.89 0 L 276.89 -2.2 Z M 284.47 0.2 C 286.24 0.2 287.97 -0.8 287.97 -2.72 C 287.97 -4.61 286.48 -5.39 284.87 -5.88 C 284.44 -6.02 284.12 -6.15 283.91 -6.24 C 283.61 -6.38 283.4 -6.54 283.4 -6.89 C 283.4 -7.29 283.92 -7.45 284.24 -7.45 C 285 -7.45 285.38 -7.11 285.7 -6.45 L 287.69 -7.62 C 287 -9.03 285.81 -9.76 284.24 -9.76 C 282.53 -9.76 281.08 -8.65 281.08 -6.89 C 281.08 -5.08 282.37 -4.37 283.92 -3.91 C 284.41 -3.77 284.76 -3.64 285 -3.54 C 285.32 -3.42 285.64 -3.25 285.64 -2.86 C 285.64 -2.34 284.94 -2.09 284.52 -2.09 C 283.61 -2.09 282.98 -2.44 282.63 -3.3 L 280.67 -2.16 C 281.3 -0.55 282.79 0.2 284.47 0.2 Z M 303.66 0.2 C 306.4 0.2 308.59 -2.03 308.59 -4.75 C 308.59 -7.5 306.39 -9.67 303.66 -9.67 C 300.92 -9.67 298.72 -7.46 298.72 -4.75 C 298.72 -2.04 300.93 0.2 303.66 0.2 Z M 301.04 -4.75 C 301.04 -6.17 302.25 -7.35 303.66 -7.35 C 305.1 -7.35 306.25 -6.17 306.25 -4.75 C 306.25 -3.32 305.1 -2.14 303.66 -2.14 C 302.23 -2.14 301.04 -3.33 301.04 -4.75 Z M 318.3 -9.58 L 318.3 -4.7 L 315.2 -9.58 L 312.86 -9.58 L 312.86 0 L 315.2 0 L 315.2 -5.47 L 318.7 0 L 320.64 0 L 320.64 -9.58 Z M 338.81 -7.36 L 338.81 -9.58 L 331.66 -9.58 L 331.66 -7.36 L 334.08 -7.36 L 334.08 0 L 336.41 0 L 336.41 -7.36 Z M 349.09 -9.58 L 349.09 -6.01 L 345.25 -6.01 L 345.25 -9.58 L 342.92 -9.58 L 342.92 0 L 345.25 0 L 345.25 -3.79 L 349.09 -3.79 L 349.09 0 L 351.41 0 L 351.41 -9.58 Z M 358.74 -2.2 L 358.74 -3.79 L 362.07 -3.79 L 362.07 -5.99 L 358.74 -5.99 L 358.74 -7.36 L 362.4 -7.36 L 362.4 -9.58 L 356.4 -9.58 L 356.4 0 L 362.47 0 L 362.47 -2.2 Z M 379.78 -7.36 L 379.78 -9.58 L 373.77 -9.58 L 373.77 0 L 376.11 0 L 376.11 -3.63 L 379.64 -3.63 L 379.64 -5.84 L 376.11 -5.84 L 376.11 -7.36 Z M 386.72 -2.2 L 386.72 -9.58 L 384.38 -9.58 L 384.38 0 L 390.43 0 L 390.43 -2.2 Z M 398.58 -9.58 L 396.63 -5.98 L 394.67 -9.58 L 392.04 -9.58 L 395.46 -3.25 L 395.46 0 L 397.8 0 L 397.8 -3.22 L 401.21 -9.58 Z" stroke-linecap="round" />
</g>
</g>
</g>
<g transform="matrix(2.4662642025146977 0 0 2.4662642025146977 640.4381578947368 396.8726283546618)" id="logo-logo"  >
<g style=""  paint-order="stroke"   >
		<g transform="matrix(0.02413489258551714 0 0 -0.02413489258551714 21.207413734426666 2.9956123742828424)"  >
<path style="stroke: none; stroke-width: 1; stroke-dasharray: none; stroke-linecap: butt; stroke-dashoffset: 0; stroke-linejoin: miter; stroke-miterlimit: 4; fill: rgb(251,140,96); fill-rule: nonzero; opacity: 1;"  paint-order="stroke"  transform=" translate(-9810.645, -6867.764999999999)" d="M 10034.3 8474.46 C 10034.3 8120.0199999999995 10034.3 6364.999999999999 10034.3 5413.82 C 9884.869999999999 5351.929999999999 9735.4 5299.7 9586.99 5261.07 C 9586.99 6115.16 9586.99 8154.5599999999995 9586.99 8474.46 L 10034.3 8474.46" stroke-linecap="round" />
</g>
		<g transform="matrix(0.02413489258551714 0 0 -0.02413489258551714 0.00012296990109916806 8.854193589548998)"  >
<path style="stroke: none; stroke-width: 1; stroke-dasharray: none; stroke-linecap: butt; stroke-dashoffset: 0; stroke-linejoin: miter; stroke-miterlimit: 4; fill: rgb(251,140,96); fill-rule: nonzero; opacity: 1;"  paint-order="stroke"  transform=" translate(-8932.085, -6625.0599999999995)" d="M 9156.33 8115.11 C 9156.33 7565.36 9156.33 5650.219999999999 9156.33 5141.219999999999 C 9110.25 5136.969999999999 9063.18 5135.009999999999 9017.26 5135.009999999999 C 8914.77 5135.989999999999 8811.23 5144.329999999999 8707.84 5161.03 C 8708.9 5940.8099999999995 8708.9 7567.3099999999995 8708.9 8115.11 L 9156.33 8115.11" stroke-linecap="round" />
</g>
		<g transform="matrix(0.02413489258551714 0 0 -0.02413489258551714 -21.208618839457245 12.432634106995778)"  >
<path style="stroke: none; stroke-width: 1; stroke-dasharray: none; stroke-linecap: butt; stroke-dashoffset: 0; stroke-linejoin: miter; stroke-miterlimit: 4; fill: rgb(251,140,96); fill-rule: nonzero; opacity: 1;"  paint-order="stroke"  transform=" translate(-8053.465, -6476.8150000000005)" d="M 8277.18 7692.56 C 8277.18 7163.6 8277.18 5806.7300000000005 8277.18 5261.070000000001 C 8128.77 5308.05 7979.150000000001 5367.64 7829.75 5436.7300000000005 C 7829.75 6085.860000000001 7829.75 7192.900000000001 7829.75 7692.56 L 8277.18 7692.56" stroke-linecap="round" />
</g>
		<g transform="matrix(0.02413489258551714 0 0 -0.02413489258551714 -42.404325839300895 14.128020133200891)"  >
<path style="stroke: none; stroke-width: 1; stroke-dasharray: none; stroke-linecap: butt; stroke-dashoffset: 0; stroke-linejoin: miter; stroke-miterlimit: 4; fill: rgb(251,140,96); fill-rule: nonzero; opacity: 1;"  paint-order="stroke"  transform=" translate(-7175.385, -6406.58)" d="M 7399.1 7214.51 C 7399.1 6759.88 7399.1 5940.32 7398.04 5598.650000000001 C 7247.5 5684.27 7098.03 5776.280000000001 6951.67 5873.360000000001 C 6951.67 6258.09 6951.67 6872.84 6951.67 7214.51 L 7399.1 7214.51" stroke-linecap="round" />
</g>
		<g transform="matrix(0.02413489258551714 0 0 -0.02413489258551714 -63.611132922215575 10.96065979707484)"  >
<path style="stroke: none; stroke-width: 1; stroke-dasharray: none; stroke-linecap: butt; stroke-dashoffset: 0; stroke-linejoin: miter; stroke-miterlimit: 4; fill: rgb(251,140,96); fill-rule: nonzero; opacity: 1;"  paint-order="stroke"  transform=" translate(-6296.844999999999, -6537.795)" d="M 6521.09 6901 C 6519.95 6672.13 6519.95 6359.59 6519.95 6174.59 C 6365.24 6287.400000000001 6215.849999999999 6401.34 6072.599999999999 6514.3 C 6072.599999999999 6639.7 6072.599999999999 6793.4400000000005 6072.599999999999 6901 L 6521.089999999999 6901" stroke-linecap="round" />
</g>
		<g transform="matrix(0.02413489258551714 0 0 -0.02413489258551714 42.70062591495258 14.128020133200891)"  >
<path style="stroke: none; stroke-width: 1; stroke-dasharray: none; stroke-linecap: butt; stroke-dashoffset: 0; stroke-linejoin: miter; stroke-miterlimit: 4; fill: rgb(57,53,54); fill-rule: nonzero; opacity: 1;"  paint-order="stroke"  transform=" translate(-10701.05, -6406.58)" d="M 10477.3 7214.51 C 10477.3 6759.88 10477.3 5940.32 10478.3 5598.650000000001 C 10629 5684.27 10778.3 5776.280000000001 10924.8 5873.360000000001 C 10924.8 6258.09 10924.8 6872.84 10924.8 7214.51 L 10477.3 7214.51" stroke-linecap="round" />
</g>
		<g transform="matrix(0.02413489258551714 0 0 -0.02413489258551714 63.9076789376694 10.96065979707484)"  >
<path style="stroke: none; stroke-width: 1; stroke-dasharray: none; stroke-linecap: butt; stroke-dashoffset: 0; stroke-linejoin: miter; stroke-miterlimit: 4; fill: rgb(57,53,54); fill-rule: nonzero; opacity: 1;"  paint-order="stroke"  transform=" translate(-11579.599999999999, -6537.795)" d="M 11355.4 6901 C 11356.5 6672.13 11356.5 6359.59 11356.5 6174.59 C 11511.1 6287.400000000001 11660.6 6401.34 11803.8 6514.3 C 11803.8 6639.7 11803.8 6793.4400000000005 11803.8 6901 L 11355.4 6901" stroke-linecap="round" />
</g>
		<g transform="matrix(0.02413489258551714 0 0 -0.02413489258551714 0 0)"  >
<path style="stroke: none; stroke-width: 1; stroke-dasharray: none; stroke-linecap: butt; stroke-dashoffset: 0; stroke-linejoin: miter; stroke-miterlimit: 4; fill: rgb(57,53,54); fill-rule: nonzero; opacity: 1;"  paint-order="stroke"  transform=" translate(-8932.079999999998, -6991.865)" d="M 13988.6 6487.95 C 13812.6 6617.61 13614.7 6782.15 13399.7 6991.86 L 13399.7 6993.009999999999 C 13614.7 7202.5599999999995 13812.6 7367.089999999999 13988.6 7496.759999999999 C 13988.6 7205.669999999999 13988.6 6823.879999999999 13988.6 6487.949999999999 z M 12584.5 6888.389999999999 C 11637.4 6110.58 10206.4 4937.89 8932.12 4926.26 C 7657.93 4937.89 6226.9 6110.58 5279.81 6888.39 L 5152.27 6993.01 L 5250.5 7073.39 C 5519.16 7292.93 6311.54 7901.29 6554 8086.3 C 7183.32 8562.95 7956.88 9051.07 8932.119999999999 9058.43 C 9907.39 9051.07 10680.9 8562.95 11310.199999999999 8086.3 C 11552.599999999999 7901.29 12344.999999999998 7292.93 12613.699999999999 7073.39 L 12711.9 6993.01 z M 4464.51 6991.86 C 4249.38 6781.98 4051.29 6617.45 3875.3 6487.61 C 3875.63 6798.509999999999 3875.63 7186.349999999999 3875.63 7496.759999999999 C 4051.62 7366.929999999999 4249.55 7202.5599999999995 4464.51 6993.009999999999 z M 14809.9 7949.2699999999995 L 14809.9 8535.85 C 14165.9 8230.53 13601.5 7808.31 13090.4 7401.63 C 13014 7339.91 12929.3 7342.05 12862.6 7398.53 L 12677.5 7549.96 C 12408.9 7770.65 12131.9 7997.4 11852.8 8210.72 C 11072.9 8801.32 10117.5 9406.57 8932.119999999999 9413.859999999999 C 7746.74 9406.57 6791.3 8801.32 6011.53 8210.72 C 5732.48 7997.4 5455.48 7770.65 5186.73 7549.96 L 5001.74 7398.53 C 4934.86 7342.05 4850.21 7339.91 4773.929999999999 7401.63 C 4262.65 7808.31 3698.2399999999993 8230.53 3054.2599999999993 8535.85 L 3054.2599999999993 7949.27 C 3054.2599999999993 7949.27 3192.359999999999 7913.42 3428.189999999999 7784.900000000001 C 3428.189999999999 7463.200000000001 3428.189999999999 6706.830000000001 3428.189999999999 6199.800000000001 C 3192.359999999999 6071.290000000001 3054.2599999999993 6035.430000000001 3054.2599999999993 6035.430000000001 L 3054.2599999999993 6032.3200000000015 L 3054.2599999999993 5449.990000000002 C 3697.169999999999 5755.1500000000015 4262.65 6176.560000000001 4772.779999999999 6583.060000000001 C 4813.539999999999 6614.500000000001 4852.269999999999 6630.210000000001 4891.969999999998 6630.210000000001 C 4931.749999999998 6630.210000000001 4968.259999999998 6615.480000000001 5002.799999999998 6586.180000000001 L 5175.269999999999 6445.210000000001 C 6288.459999999999 5528.410000000001 7440.4299999999985 4581.330000000001 8932.119999999999 4569.870000000001 C 10423.8 4581.330000000001 11575.699999999999 5528.410000000001 12689.099999999999 6445.210000000001 L 12861.499999999998 6586.180000000001 C 12895.999999999998 6615.480000000001 12932.599999999999 6630.210000000001 12972.199999999999 6630.210000000001 C 13012.099999999999 6630.210000000001 13050.599999999999 6614.500000000001 13091.499999999998 6583.060000000001 C 13601.499999999998 6176.560000000001 14167.099999999999 5755.1500000000015 14809.899999999998 5449.990000000002 L 14809.899999999998 6032.3200000000015 L 14809.899999999998 6035.430000000001 C 14809.899999999998 6035.430000000001 14671.599999999999 6071.450000000002 14435.199999999997 6200.300000000001 C 14436.099999999997 6572.750000000001 14436.099999999997 7348.440000000001 14436.099999999997 7784.9000000000015 C 14671.899999999996 7913.420000000002 14809.899999999996 7949.270000000001 14809.899999999996 7949.270000000001" stroke-linecap="round" />
</g>
</g>
</g>
</svg>